<svg xmlns="http://www.w3.org/2000/svg" width="18.021" height="14.642" viewBox="0 0 18.021 14.642">
  <path id="twitter" d="M18.021,49.733a7.7,7.7,0,0,1-2.129.583,3.674,3.674,0,0,0,1.625-2.042,7.383,7.383,0,0,1-2.343.894A3.694,3.694,0,0,0,8.784,51.7a3.8,3.8,0,0,0,.086.842,10.457,10.457,0,0,1-7.615-3.864A3.7,3.7,0,0,0,2.39,53.611a3.649,3.649,0,0,1-1.669-.455V53.2a3.712,3.712,0,0,0,2.96,3.63,3.687,3.687,0,0,1-.969.122,3.266,3.266,0,0,1-.7-.063,3.73,3.73,0,0,0,3.452,2.574A7.423,7.423,0,0,1,.884,61.035,6.92,6.92,0,0,1,0,60.984a10.4,10.4,0,0,0,5.668,1.658A10.443,10.443,0,0,0,16.183,52.129c0-.163-.006-.321-.014-.478A7.37,7.37,0,0,0,18.021,49.733Z" transform="translate(0 -48)" fill="#5a7184"/>
</svg>
