<svg id="youtube" xmlns="http://www.w3.org/2000/svg" width="18.535" height="12.977" viewBox="0 0 18.535 12.977">
  <path id="Path_4147" data-name="Path 4147" d="M18.153,2.031A2.322,2.322,0,0,0,16.519.4,54.241,54.241,0,0,0,9.267,0,56.366,56.366,0,0,0,2.015.382,2.37,2.37,0,0,0,.382,2.031,24.469,24.469,0,0,0,0,6.489a24.379,24.379,0,0,0,.382,4.458A2.323,2.323,0,0,0,2.015,12.58a54.354,54.354,0,0,0,7.252.4,56.366,56.366,0,0,0,7.252-.382,2.322,2.322,0,0,0,1.634-1.634A24.47,24.47,0,0,0,18.535,6.5a23.225,23.225,0,0,0-.382-4.473Zm0,0" fill="#5a7184"/>
  <path id="Path_4148" data-name="Path 4148" d="M204.969,108.042l4.824-2.779-4.824-2.779Zm0,0" transform="translate(-197.549 -98.774)" fill="#f9fbfe"/>
</svg>
