<svg id="Layer_1" height="512" viewBox="0 0 512 512" width="512" xmlns="http://www.w3.org/2000/svg" data-name="Layer 1"><path d="m195.065 240.1v-.165c-19.137 0-34.58 15.82-34.58 35.264s15.443 35.265 34.58 35.265 34.581-15.82 34.581-35.1c0-19.446-15.612-35.264-34.581-35.264z"/><path d="m256 6c-138.071 0-250 111.929-250 250s111.929 250 250 250 250-111.929 250-250-111.929-250-250-250zm92.494 381.911s-12.594-14.011-21.655-26.366c43.645-12.359 60.1-37.076 60.1-37.076-45.379 28.057-87.76 38.852-130.939 37.449-43.179 1.4-85.56-9.392-130.934-37.449 0 0 16.45 24.717 60.1 37.076-9.064 12.359-21.654 26.366-21.654 26.366-74.873-1.648-103.912-47.458-105.592-45.481 0-102 49.52-185.054 49.52-185.054 44.316-31.8 85.611-33.122 93.5-33.287l5.037 4.779c-56.571 15.819-83.933 40.537-83.933 40.537 48.553-23.451 94.315-31.7 133.956-32.194 39.642.5 85.4 8.743 133.956 32.194 0 0-27.362-24.718-83.932-40.537l5.036-4.779c7.89.165 49.184 1.483 93.5 33.287 0 0 49.519 83.052 49.519 185.054-1.679-1.977-30.718 43.833-105.585 45.481z"/><path d="m316.935 239.933v.165c-18.969 0-34.581 15.82-34.581 35.264 0 19.28 15.445 35.1 34.581 35.1s34.58-15.82 34.58-35.265-15.443-35.264-34.58-35.264z"/></svg>