<svg xmlns="http://www.w3.org/2000/svg" width="64" height="66" viewBox="0 0 64 66"><defs><style>.a{fill:none;}.b{fill:#b3bac5;opacity:0.1;}.c{fill:#3b5afb;}.d{fill:#44d5e9;}</style></defs><g transform="translate(-172 -1273)"><g transform="translate(172 1273)"><rect class="a" width="64" height="66" rx="12"/><rect class="b" width="64" height="66" rx="12"/></g><g transform="translate(183 1285)"><path class="a" d="M0,0H42V42H0Z"/><path class="c" d="M26.954,23.4,14.84,19.518l-3.08-.336V4.351l3-.323L23.52,1.22V9.24a.84.84,0,0,0,1.68,0V.682L26.951.121a2.519,2.519,0,0,1,3.289,2.4V21a2.519,2.519,0,0,1-3.286,2.4ZM5.242,18.471A5.88,5.88,0,0,1,0,12.625V10.9A5.881,5.881,0,0,1,5.25,5.053l4.83-.521V19Z" transform="translate(3.36 5.04)"/><path class="d" d="M5.72,22.622a2.521,2.521,0,0,1-2.347-1.6L0,12.38a7.512,7.512,0,0,0,.839.139L8,13.3l1.145,6.354a2.52,2.52,0,0,1-2.034,2.927,2.564,2.564,0,0,1-.446.04ZM27.7,0a4.857,4.857,0,0,1,2.52,4.139A4.857,4.857,0,0,1,27.7,8.278Z" transform="translate(7.58 12.661)"/></g></g></svg>