<svg xmlns="http://www.w3.org/2000/svg" width="15.208" height="15.208" viewBox="0 0 15.208 15.208">
  <path id="linkedin" d="M14.111,0H1.1A1.1,1.1,0,0,0,0,1.1V14.111a1.1,1.1,0,0,0,1.1,1.1H14.111a1.1,1.1,0,0,0,1.1-1.1V1.1a1.1,1.1,0,0,0-1.1-1.1ZM5.394,11.495H3.543V5.923H5.394ZM4.469,5.163H4.456a.965.965,0,1,1,.024-1.925.966.966,0,1,1-.012,1.925Zm7.6,6.332H10.22V8.514c0-.749-.268-1.26-.938-1.26a1.014,1.014,0,0,0-.95.677,1.268,1.268,0,0,0-.061.452v3.111H6.419s.024-5.049,0-5.571H8.271v.789a1.838,1.838,0,0,1,1.669-.92c1.218,0,2.132.8,2.132,2.508Zm0,0" transform="translate(0)" fill="#5a7184"/>
</svg>
