<svg height="512pt" viewBox="-2 0 512 512" width="512pt" xmlns="http://www.w3.org/2000/svg"><path d="m314.058594 512h-120.488282c-8.28125 0-15-6.714844-15-15v-32.289062c0-34.820313-37.671874-56.621094-67.863281-39.1875l-27.960937 16.144531c-7.164063 4.136719-16.347656 1.683593-20.492188-5.492188l-60.242187-104.355469c-4.140625-7.171874-1.683594-16.347656 5.488281-20.488281l27.960938-16.144531c30.160156-17.414062 30.1875-60.945312 0-78.375l-27.960938-16.144531c-7.171875-4.144531-9.628906-13.316407-5.488281-20.488281l60.242187-104.355469c4.140625-7.167969 13.316406-9.636719 20.492188-5.492188l27.960937 16.144531c30.167969 17.417969 67.863281-4.332031 67.863281-39.1875v-32.289062c0-8.285156 6.714844-15 15-15h120.484376c8.285156 0 15 6.714844 15 15v32.289062c0 34.820313 37.671874 56.621094 67.867187 39.1875l27.960937-16.144531c7.167969-4.136719 16.347657-1.683593 20.488282 5.492188l60.246094 104.355469c4.140624 7.171874 1.683593 16.34375-5.492188 20.488281l-27.957031 16.144531c-30.164063 17.414062-30.1875 60.945312-.003907 78.375l27.960938 16.144531c7.175781 4.144531 9.632812 13.316407 5.492188 20.488281l-60.242188 104.355469c-4.136719 7.167969-13.316406 9.636719-20.492188 5.492188l-27.960937-16.144531c-30.15625-17.410157-67.863281 4.324218-67.863281 39.1875v32.289062c0 8.285156-6.71875 15-15 15zm0 0" fill="#66a9df"/><path d="m500.125 311.328125-27.960938-16.136719c-30.179687-17.429687-30.160156-60.960937 0-78.382812l27.960938-16.136719c7.179688-4.140625 9.628906-13.320313 5.488281-20.492187l-60.238281-104.359376c-4.140625-7.171874-13.320312-9.628906-20.492188-5.492187l-27.957031 16.152344c-30.199219 17.429687-67.871093-4.371094-67.871093-39.191407v-32.289062c0-8.28125-6.710938-15-15-15h-60.238282v512h60.238282c8.289062 0 15-6.71875 15-15v-32.289062c0-34.859376 37.710937-56.601563 67.871093-39.191407l27.957031 16.152344c7.171876 4.136719 16.351563 1.679687 20.492188-5.492187l60.238281-104.359376c4.140625-7.171874 1.691407-16.351562-5.488281-20.492187zm0 0" fill="#4f84cf"/><path d="m253.816406 361c-57.894531 0-104.992187-47.101562-104.992187-105s47.097656-105 104.992187-105c57.890625 0 104.988282 47.101562 104.988282 105s-47.097657 105-104.988282 105zm0 0" fill="#d6f3fe"/><path d="m253.816406 151v210c57.886719 0 104.988282-47.101562 104.988282-105s-47.101563-105-104.988282-105zm0 0" fill="#bdecfc"/></svg>