<svg xmlns="http://www.w3.org/2000/svg" width="15" height="15" viewBox="0 0 15 15">
  <g id="telegram" transform="translate(-0.316 -0.109)">
    <path id="Path_4157" data-name="Path 4157" d="M7.5,0A7.5,7.5,0,1,1,0,7.5,7.5,7.5,0,0,1,7.5,0Z" transform="translate(0.316 0.109)" fill="#5a7184"/>
    <path id="Path_4156" data-name="Path 4156" d="M5.264,10.053l7.248-2.795c.336-.122.63.082.521.591h0L11.8,13.663c-.091.412-.336.512-.679.318L9.242,12.6l-.907.873a.474.474,0,0,1-.379.185l.133-1.913,3.483-3.147c.152-.133-.034-.209-.234-.076l-4.3,2.71L5.179,10.65c-.4-.128-.412-.4.085-.6Z" transform="translate(-1.729 -2.63)" fill="#fff"/>
  </g>
</svg>
