<svg xmlns="http://www.w3.org/2000/svg" width="21.025" height="28.629" viewBox="0 0 21.025 28.629"><defs><style>.a{fill:#959ead;}</style></defs><path class="a" d="M13.581,28.629a5.943,5.943,0,0,1-4.473-1.476,4.558,4.558,0,0,1-1.4-3.181,2.11,2.11,0,0,1,.246-1.051,1.819,1.819,0,0,1,.671-.671,2.34,2.34,0,0,1,2.089,0,1.789,1.789,0,0,1,.667.671,2.067,2.067,0,0,1,.255,1.051,2.008,2.008,0,0,1-.358,1.23,1.667,1.667,0,0,1-.85.622,2.322,2.322,0,0,0,1.342.837,6.65,6.65,0,0,0,1.83.264,4.078,4.078,0,0,0,2.3-.689A4.026,4.026,0,0,0,17.4,24.2a8.842,8.842,0,0,0,.492-3.046,8.358,8.358,0,0,0-.537-3.167A3.91,3.91,0,0,0,15.8,16.019a4.128,4.128,0,0,0-2.236-.64,4.255,4.255,0,0,0-1.937.658l-1.436.72v-.72L16.65,7.377H7.7v8.986A3.215,3.215,0,0,0,8.2,18.2a1.7,1.7,0,0,0,1.5.72,2.513,2.513,0,0,0,1.485-.523,5.362,5.362,0,0,0,1.244-1.279.447.447,0,0,1,.162-.215.331.331,0,0,1,.216-.081.747.747,0,0,1,.421.179.9.9,0,0,1,.228.608,3.556,3.556,0,0,1-.081.447,4.331,4.331,0,0,1-1.534,1.905,3.806,3.806,0,0,1-2.152.654q-2.906,0-4.026-1.145A4.289,4.289,0,0,1,4.55,16.341V7.377H0V5.708H4.572V1.9L3.525.854V0H6.562L7.7.591V5.708l11.818-.036L20.7,6.853l-7.247,7.282A4.87,4.87,0,0,1,14.82,13.8a5.932,5.932,0,0,1,2.649.756A5.44,5.44,0,0,1,19.75,16.6a7.185,7.185,0,0,1,1.029,2.456,10.345,10.345,0,0,1,.246,2.1,8.8,8.8,0,0,1-.895,3.9,5.714,5.714,0,0,1-2.684,2.684,8.685,8.685,0,0,1-3.865.894Z"/></svg>